<svg width="72" height="72" viewBox="0 0 72 72" fill="none" xmlns="http://www.w3.org/2000/svg">
<rect width="72" height="72" rx="36" fill="#FEECEB"/>
<path fillRule="evenodd" clipRule="evenodd" d="M48.6375 42.0953L48.6374 42.0954V42.0955C48.5096 44.184 48.4082 45.8414 48.2003 47.1654C47.987 48.5231 47.6457 49.6538 46.9629 50.6428C46.3382 51.5476 45.534 52.3113 44.6013 52.8852C43.5819 53.5124 42.4434 53.7868 41.0885 53.918L30.879 53.9177C29.5225 53.7863 28.3829 53.5115 27.3627 52.883C26.4294 52.3081 25.6249 51.5431 25.0005 50.6368C24.3179 49.6462 23.9776 48.5138 23.766 47.1541C23.5596 45.8283 23.4604 44.1685 23.3354 42.0769L22.25 23.918H49.75L48.6375 42.0953L48.6375 42.0953ZM31.8333 45.9362C31.143 45.9362 30.5833 45.3766 30.5833 44.6862L30.5833 34.6862C30.5833 33.9958 31.143 33.4362 31.8333 33.4362C32.5237 33.4362 33.0833 33.9958 33.0833 34.6862L33.0833 44.6862C33.0833 45.3766 32.5237 45.9362 31.8333 45.9362ZM41.4167 34.6862C41.4167 33.9958 40.857 33.4362 40.1667 33.4362C39.4763 33.4362 38.9167 33.9958 38.9167 34.6862V44.6862C38.9167 45.3766 39.4763 45.9362 40.1667 45.9362C40.857 45.9362 41.4167 45.3766 41.4167 44.6862V34.6862Z" fill="#DA3E33"/>
<path fillRule="evenodd" clipRule="evenodd" d="M38.2461 18.1386C39.1879 18.2228 40.0732 18.5102 40.8333 19.0772C41.3954 19.4964 41.786 20.0097 42.1197 20.5655C42.4288 21.0806 42.7401 21.7228 43.0932 22.4513L43.8044 23.9185H51.0007C51.9211 23.9185 52.6673 24.6647 52.6673 25.5852C52.6673 26.5056 51.9211 27.2518 51.0007 27.2518C41.0002 27.2518 31.001 27.2518 21.0007 27.2518C20.0802 27.2518 19.334 26.5056 19.334 25.5852C19.334 24.6647 20.0802 23.9185 21.0007 23.9185H28.3503L28.9432 22.6176C29.2875 21.8622 29.5907 21.197 29.8953 20.6632C30.2238 20.0874 30.6127 19.5546 31.1817 19.1181C31.9512 18.5277 32.8542 18.2285 33.8172 18.1408C34.5422 18.0748 35.273 18.0839 36.0007 18.085C36.852 18.0864 37.6173 18.0824 38.2461 18.1386ZM32.0136 23.9185H40.1001C39.7224 23.1395 39.4806 22.6458 39.2616 22.281C38.9412 21.7471 38.5572 21.5131 37.9492 21.4587C37.517 21.42 36.9539 21.4185 36.0582 21.4185C35.1402 21.4185 34.5623 21.4201 34.1194 21.4604C33.4959 21.5172 33.1071 21.7601 32.7905 22.3151C32.583 22.6788 32.3571 23.1656 32.0136 23.9185Z" fill="#DA3E33"/>
</svg>
