<svg width="166" height="141" viewBox="0 0 166 141" fill="none" xmlns="http://www.w3.org/2000/svg">
<path d="M82.6009 114.346C109.386 114.346 131.211 92.5471 131.211 65.7739C131.12 38.9103 109.386 17.1118 82.6009 17.1118C55.7258 17.1118 33.9912 38.9103 33.9912 65.6835C33.9912 92.5471 55.7258 114.346 82.6009 114.346Z" fill="#F1F3F9" stroke="#D6DCE8" strokeWidth="2" strokeMiterlimit="10"/>
<path d="M128.275 72.1118C128.275 81.304 120.843 88.7377 111.572 88.7377C111.412 88.7377 110.054 88.7377 100.064 88.7377C93.1105 88.7377 82.0016 88.7377 64.2593 88.7377H55.7877C44.6788 88.9775 35.8076 80.105 35.8076 69.3941C35.8076 58.6033 44.7587 49.6509 56.0275 50.2104C65.6978 19.996 109.974 24.2324 113.73 55.4859C122.042 56.525 128.275 63.559 128.275 72.1118Z" fill="white" stroke="#D6DCE8" strokeWidth="2" strokeMiterlimit="10"/>
<path d="M113.49 55.5658C112.851 55.4858 112.211 55.4858 111.572 55.4858C108.295 55.4858 105.178 56.4449 102.541 58.1233" fill="white"/>
<path d="M113.49 55.5658C112.851 55.4858 112.211 55.4858 111.572 55.4858C108.295 55.4858 105.178 56.4449 102.541 58.1233" stroke="#D6DCE8" strokeWidth="2" strokeMiterlimit="10" strokeLinecap="round"/>
<path d="M56.0274 50.2104C55.0684 53.088 54.5889 56.1254 54.5889 59.3227C54.5889 60.6016 54.6688 61.8006 54.8286 62.9996" fill="white"/>
<path d="M56.0274 50.2104C55.0684 53.088 54.5889 56.1254 54.5889 59.3227C54.5889 60.6016 54.6688 61.8006 54.8286 62.9996" stroke="#D6DCE8" strokeWidth="2" strokeMiterlimit="10" strokeLinecap="round" strokeLinejoin="round"/>
<path d="M73.9376 68.9822C75.196 68.9822 76.2609 67.9173 76.2609 66.6588C76.2609 65.4003 75.196 64.3354 73.9376 64.3354C72.6791 64.3354 71.6143 65.4003 71.6143 66.6588C71.6143 67.9173 72.6791 68.9822 73.9376 68.9822Z" fill="#989FB0"/>
<path d="M91.7501 68.9822C93.0085 68.9822 94.0734 67.9173 94.0734 66.6588C94.0734 65.4003 93.0085 64.3354 91.7501 64.3354C90.4916 64.3354 89.4268 65.4003 89.4268 66.6588C89.4268 68.0142 90.4916 68.9822 91.7501 68.9822Z" fill="#989FB0"/>
<path d="M73.8469 58.9716L68.7363 61.7314L69.4262 63.0092L74.5367 60.2494L73.8469 58.9716Z" fill="#989FB0"/>
<path d="M91.4339 58.9345L90.7441 60.2124L95.8554 62.9714L96.5452 61.6936L91.4339 58.9345Z" fill="#989FB0"/>
<path d="M82.8443 74.4038C84.3413 74.4038 85.5549 73.4936 85.5549 72.3709C85.5549 71.2481 84.3413 70.3379 82.8443 70.3379C81.3473 70.3379 80.1338 71.2481 80.1338 72.3709C80.1338 73.4936 81.3473 74.4038 82.8443 74.4038Z" fill="#989FB0"/>
<path d="M28.467 32.2427C28.467 32.2427 16.4487 35.2945 20.0906 37.736C23.7325 40.0555 32.3517 44.0839 40.4854 41.3983C48.619 38.7126 40.4854 34.9283 40.6068 34.9283C40.7282 34.9283 28.467 32.2427 28.467 32.2427Z" fill="#F1F3F9" stroke="#D6DCE8" strokeWidth="1.90138" strokeMiterlimit="10"/>
<path d="M13.7773 31.2663C18.1477 32.6092 31.6228 30.4118 40.242 24.7964C47.0403 33.2195 49.5896 35.4169 52.0176 35.661C48.2542 39.4453 35.7503 45.5491 28.7092 37.6142C20.4542 42.8634 13.7773 31.2663 13.7773 31.2663Z" fill="white" stroke="#D6DCE8" strokeWidth="1.90138" strokeMiterlimit="10" strokeLinejoin="round"/>
<path d="M113.333 61.7895C117.946 62.0337 130.45 56.4182 137.248 48.8496C145.989 55.3196 148.902 56.7845 151.452 56.4182C148.66 61.0571 140.162 71.1893 128.143 71.9217C119.403 66.7946 113.333 61.7895 113.333 61.7895Z" fill="white" stroke="#D6DCE8" strokeWidth="1.90138" strokeMiterlimit="10" strokeLinejoin="round"/>
<path d="M81.9452 120.336C81.0325 115.807 72.4802 105.094 63.4578 100.394C67.5457 90.3162 68.2384 87.1292 67.2488 84.7511C72.4363 86.3001 84.3644 92.0074 88.0674 103.466C85.2798 113.21 81.9452 120.336 81.9452 120.336Z" fill="white" stroke="#D6DCE8" strokeWidth="1.90138" strokeMiterlimit="10" strokeLinejoin="round"/>
</svg>
