<svg width="140" height="140" viewBox="0 0 140 140" fill="none" xmlns="http://www.w3.org/2000/svg">
  <path d="M77.2657 112.649C104.111 112.649 125.875 90.9275 125.875 64.0392C125.875 37.1509 104.015 15.4297 77.2657 15.4297C50.4203 15.4297 28.6562 37.1509 28.6562 64.0392C28.6562 90.9275 50.4203 112.649 77.2657 112.649Z" fill="#F1F3F9" stroke="#D6DCE8" strokeWidth="2" strokeMiterlimit="10"/>
  <path d="M122.711 32.2086C124.882 32.2086 126.642 30.4486 126.642 28.2776C126.642 26.1066 124.882 24.3467 122.711 24.3467C120.54 24.3467 118.78 26.1066 118.78 28.2776C118.78 30.4486 120.54 32.2086 122.711 32.2086Z" fill="#F1F3F9"/>
  <path d="M128.464 16.8681C129.946 16.8681 131.148 15.6662 131.148 14.1836C131.148 12.7009 129.946 11.499 128.464 11.499C126.981 11.499 125.779 12.7009 125.779 14.1836C125.779 15.6662 126.981 16.8681 128.464 16.8681Z" fill="#F1F3F9"/>
  <path d="M31.2451 32.1123C32.7277 32.1123 33.9296 30.9103 33.9296 29.4277C33.9296 27.9451 32.7277 26.7432 31.2451 26.7432C29.7625 26.7432 28.5605 27.9451 28.5605 29.4277C28.5605 30.9103 29.7625 32.1123 31.2451 32.1123Z" fill="#F1F3F9"/>
  <path d="M14.8498 83.8862C17.6033 83.8862 19.8354 81.6541 19.8354 78.9006C19.8354 76.1472 17.6033 73.915 14.8498 73.915C12.0964 73.915 9.86426 76.1472 9.86426 78.9006C9.86426 81.6541 12.0964 83.8862 14.8498 83.8862Z" fill="#F1F3F9"/>
  <path d="M77.2301 85.8396L75.5355 85.8057C75.1965 85.7989 74.8645 85.4544 74.8929 85.0376C74.9213 84.6208 75.1878 84.2684 75.5267 84.2752L77.2214 84.3091C77.5603 84.3159 77.8924 84.6604 77.8639 85.0772C77.814 85.5731 77.5691 85.8464 77.2301 85.8396Z" fill="#CED7E2"/>
  <path d="M70.156 41.0617L90.3443 84.013C91.0182 85.5008 90.3766 87.2107 88.8834 87.8844L46.5421 107.09C45.049 107.764 43.3346 107.126 42.6606 105.639L17.3813 50.0603C16.7073 48.5726 17.349 46.8626 18.8421 46.189L49.4852 32.3307L70.156 41.0617Z" fill="white" stroke="#D6DCE8" strokeWidth="2" strokeMiterlimit="10"/>
  <path d="M48.9922 32.4736L54.346 44.4427C55.1245 46.0898 57.1891 46.8427 58.8306 46.058L69.5958 41.2799" fill="#D6DCE8"/>
  <path d="M106.057 45.8461L105.977 92.5154C105.951 94.1213 104.668 95.373 103.064 95.3458L57.5418 94.6651C55.938 94.6379 54.6864 93.3516 54.7117 91.7457L55.563 31.7104C55.5882 30.1045 56.8713 28.8528 58.4751 28.88L91.4033 29.4094L106.057 45.8461Z" fill="white" stroke="#D6DCE8" strokeWidth="2" strokeMiterlimit="10"/>
  <path d="M91.1514 28.9668L90.9873 41.805C91.0021 43.5891 92.5351 45.1144 94.3258 45.1004L105.917 45.3355" fill="#D6DCE8"/>
  <path d="M134.74 66.5919L115.214 109.087C114.564 110.52 112.784 111.129 111.374 110.395L70.288 90.7706C68.8563 90.1161 68.2457 88.3306 68.8957 86.8968L94.6412 32.6215C95.2912 31.1877 97.0712 30.5793 98.4811 31.3128L128.315 45.5877L134.74 66.5919Z" fill="white" stroke="#D6DCE8" strokeWidth="2" strokeMiterlimit="10"/>
  <path d="M128.234 45.1178L122.77 56.8202C121.981 58.4775 122.797 60.4875 124.452 61.2796L134.858 66.1619" fill="#D6DCE8"/>
</svg>
